<svg width="267" height="256" viewBox="0 0 267 256" fill="none" xmlns="http://www.w3.org/2000/svg">
<rect width="267" height="256" rx="80" fill="url(#paint0_linear_154_16)"/>
<path d="M69.0718 111.229C69.2184 125.863 75.7076 139.841 87.1118 150.088C98.5159 160.335 113.901 166.011 129.882 165.868C145.863 165.725 161.132 159.774 172.328 149.325C183.525 138.875 189.733 124.783 189.586 110.149L129.329 110.689L69.0718 111.229Z" fill="#BDBDBD" fill-opacity="0.78"/>
<path d="M83.388 147.516C74.1412 138.738 67.8542 127.593 65.3222 115.491C62.7902 103.389 64.1268 90.8735 69.163 79.5271C74.1992 68.1807 82.7089 58.513 93.6159 51.7466C104.523 44.9802 117.337 41.4189 130.439 41.5131C143.54 41.6073 156.34 45.3528 167.22 52.2759C178.1 59.199 186.571 68.9888 191.562 80.4072C196.553 91.8257 197.84 104.36 195.26 116.425C192.68 128.49 186.349 139.544 177.068 148.19L167.161 138.784C174.475 131.971 179.465 123.259 181.498 113.751C183.531 104.243 182.517 94.3643 178.583 85.3655C174.65 76.3666 167.974 68.6514 159.4 63.1953C150.825 57.7393 140.738 54.7875 130.413 54.7133C120.087 54.639 109.988 57.4456 101.393 62.7782C92.797 68.1108 86.0906 75.7298 82.1216 84.6718C78.1526 93.6138 77.0992 103.477 79.0947 113.015C81.0902 122.552 86.0449 131.335 93.3322 138.253L83.388 147.516Z" fill="#514646"/>
<ellipse cx="59.5127" cy="186.412" rx="16.9169" ry="15.331" fill="#A7A5A5"/>
<ellipse cx="200.135" cy="186.412" rx="16.9169" ry="15.331" fill="#A7A5A5"/>
<ellipse cx="184.804" cy="162.622" rx="24.8467" ry="23.2608" fill="#909090"/>
<ellipse cx="76.4296" cy="162.622" rx="25.3754" ry="23.2608" fill="#909090"/>
<ellipse cx="95.9898" cy="130.903" rx="29.076" ry="27.49" fill="#838383"/>
<ellipse cx="166.829" cy="130.903" rx="29.076" ry="27.49" fill="#838383"/>
<ellipse cx="129.824" cy="99.712" rx="33.3052" ry="31.1906" fill="#686767"/>
<g style="mix-blend-mode:color-burn">
<ellipse cx="16.2287" cy="80.7048" rx="16.2287" ry="80.7048" transform="matrix(0.778904 -0.627143 0.669115 0.743159 119.717 72.955)" fill="#D9D9D9"/>
</g>
<g style="mix-blend-mode:color-burn">
<ellipse cx="13.8164" cy="77.5571" rx="13.8164" ry="77.5571" transform="matrix(0.78521 0.61923 -0.661416 0.750019 115.595 53.9491)" fill="#D9D9D9"/>
</g>
<defs>
<linearGradient id="paint0_linear_154_16" x1="0" y1="0" x2="246.037" y2="277.559" gradientUnits="userSpaceOnUse">
<stop stop-color="#59E382"/>
<stop offset="1" stop-color="#5A81FA"/>
</linearGradient>
</defs>
</svg>
