<svg width="60" height="87" viewBox="0 0 60 87" fill="none" xmlns="http://www.w3.org/2000/svg">
<circle cx="30" cy="30" r="30" fill="#37FC6E"/>
<path d="M31.0129 87L4.125 44.625H55.875L31.0129 87Z" fill="#37FC6E"/>
<path d="M52.4504 29.3827C52.3577 28.9194 52.135 28.492 51.8082 28.1506C51.4814 27.8092 51.0642 27.568 50.6053 27.4551L33.454 23.1648L39.797 8.36118C40.018 7.84746 40.0599 7.27441 39.9162 6.73397C39.7725 6.19353 39.4514 5.71704 39.0044 5.38095C38.5583 5.04266 38.0112 4.86458 37.4514 4.87547C36.8916 4.88636 36.3518 5.08557 35.9192 5.44096L8.41715 27.9426C8.05842 28.2361 7.78831 28.6235 7.637 29.0616C7.48569 29.4996 7.45912 29.9711 7.56026 30.4234C7.66141 30.8757 7.88629 31.291 8.20978 31.6229C8.53328 31.9548 8.94266 32.1903 9.39222 32.303L26.191 36.5058L17.8279 51.1419C17.6121 51.5221 17.4997 51.9522 17.5019 52.3894C17.5041 52.8265 17.6207 53.2555 17.8402 53.6336C18.0597 54.0117 18.3744 54.3256 18.753 54.5443C19.1316 54.7629 19.5608 54.8785 19.998 54.8796C20.5391 54.8806 21.0658 54.705 21.4981 54.3796L51.5004 31.8779C51.8783 31.5943 52.1682 31.2094 52.3364 30.7678C52.5045 30.3262 52.5441 29.8459 52.4504 29.3827Z" fill="#F5F5F5"/>
</svg>
