<svg width="60" height="87" viewBox="0 0 60 87" fill="none" xmlns="http://www.w3.org/2000/svg">
<circle cx="30" cy="30" r="30" fill="url(#paint0_linear_483_169)"/>
<path d="M31.0129 87L4.125 44.625H55.875L31.0129 87Z" fill="url(#paint1_linear_483_169)"/>
<path d="M49.9125 21.3025C49.97 20.8675 50 20.4325 50 20C50 14.0525 44.6425 9.28 38.6975 10.0875C36.965 7.005 33.665 5 30 5C26.335 5 23.035 7.005 21.3025 10.0875C15.345 9.28 10 14.0525 10 20C10 20.4325 10.03 20.8675 10.0875 21.3025C7.005 23.0375 5 26.3375 5 30C5 33.6625 7.005 36.9625 10.0875 38.6975C10.0298 39.1293 10.0006 39.5644 10 40C10 45.9475 15.345 50.7075 21.3025 49.9125C23.035 52.995 26.335 55 30 55C33.665 55 36.965 52.995 38.6975 49.9125C44.6425 50.7075 50 45.9475 50 40C50 39.5675 49.97 39.1325 49.9125 38.6975C52.995 36.9625 55 33.6625 55 30C55 26.3375 52.995 23.0375 49.9125 21.3025ZM27.3875 41.04L18.22 31.755L21.78 28.245L27.4225 33.96L38.24 23.225L41.76 26.775L27.3875 41.04Z" fill="#F5F5F5"/>
<defs>
<linearGradient id="paint0_linear_483_169" x1="30" y1="0" x2="30" y2="60" gradientUnits="userSpaceOnUse">
<stop stop-color="#59E382"/>
<stop offset="1" stop-color="#5A81FA"/>
</linearGradient>
<linearGradient id="paint1_linear_483_169" x1="30" y1="87" x2="30" y2="44.625" gradientUnits="userSpaceOnUse">
<stop stop-color="#59E382"/>
<stop offset="1" stop-color="#5A81FA"/>
</linearGradient>
</defs>
</svg>
